<svg xmlns="http://www.w3.org/2000/svg" width="128" height="128" viewBox="0 0 128 128" shape-rendering="crispEdges">
  <rect width="128" height="128" fill="#00000000" />

  <rect x="0" y="0" width="16" height="16" fill="#0f172a" />

  <rect x="16" y="0" width="16" height="16" fill="#7c3f00" />
  <rect x="16" y="10" width="16" height="6" fill="#5a2e00" />

  <rect x="32" y="0" width="16" height="16" fill="#3f3f46" />
  <rect x="33" y="2" width="4" height="3" fill="#71717a" />
  <rect x="40" y="6" width="3" height="3" fill="#52525b" />
  <rect x="37" y="11" width="5" height="3" fill="#27272a" />

  <rect x="48" y="0" width="16" height="16" fill="#6b7280" />
  <rect x="50" y="3" width="3" height="3" fill="#9ca3af" />
  <rect x="56" y="8" width="2" height="2" fill="#9ca3af" />

  <rect x="64" y="0" width="16" height="16" fill="#ef4444" />
  <rect x="80" y="0" width="16" height="16" fill="#22c55e" />
  <rect x="96" y="0" width="16" height="16" fill="#3b82f6" />
  <rect x="112" y="0" width="16" height="16" fill="#eab308" />

  <rect x="0" y="16" width="16" height="16" fill="#a855f7" />

  <rect x="16" y="16" width="16" height="16" fill="#8b5a2b" />
  <rect x="16" y="24" width="16" height="3" fill="#d4a373" />

  <rect x="32" y="16" width="16" height="16" fill="#4b5563" />
  <rect x="32" y="24" width="16" height="3" fill="#cbd5e1" />

  <rect x="48" y="16" width="16" height="16" fill="#60a5fa" />
  <rect x="48" y="24" width="16" height="8" fill="#93c5fd" />

  <rect x="64" y="16" width="16" height="16" fill="#9a3412" />
  <rect x="66" y="18" width="12" height="2" fill="#7c2d12" />
  <rect x="66" y="24" width="12" height="2" fill="#7c2d12" />

  <rect x="80" y="16" width="16" height="16" fill="#14532d" />
  <circle cx="88" cy="24" r="5" fill="#22c55e" />

  <rect x="96" y="16" width="16" height="16" fill="#111827" />
  <rect x="101" y="19" width="6" height="10" fill="#fde68a" />
  <rect x="103" y="16" width="2" height="3" fill="#f59e0b" />

  <rect x="112" y="16" width="16" height="16" fill="#2563eb" />
  <rect x="112" y="23" width="16" height="3" fill="#60a5fa" />

  <rect x="0" y="32" width="16" height="16" fill="#b91c1c" />
  <rect x="0" y="39" width="16" height="3" fill="#f97316" />
</svg>
