<svg xmlns="http://www.w3.org/2000/svg" width="64" height="16" viewBox="0 0 64 16" shape-rendering="crispEdges">
  <rect width="64" height="16" fill="#00000000" />

  <g transform="translate(0,0)" stroke="#0f172a" stroke-width="1" fill="none" stroke-linecap="square">
    <line x1="3" y1="2" x2="7" y2="6" />
    <line x1="7" y1="6" x2="11" y2="8" />
    <line x1="11" y1="8" x2="13" y2="12" />
    <line x1="10" y1="2" x2="8" y2="5" />
  </g>

  <g transform="translate(16,0)" stroke="#0f172a" stroke-width="1" fill="none" stroke-linecap="square">
    <line x1="3" y1="2" x2="7" y2="6" />
    <line x1="7" y1="6" x2="11" y2="8" />
    <line x1="11" y1="8" x2="13" y2="12" />
    <line x1="10" y1="2" x2="8" y2="5" />
    <line x1="5" y1="4" x2="4" y2="9" />
    <line x1="4" y1="9" x2="7" y2="13" />
    <line x1="2" y1="11" x2="6" y2="10" />
  </g>

  <g transform="translate(32,0)" stroke="#0f172a" stroke-width="1" fill="none" stroke-linecap="square">
    <line x1="3" y1="2" x2="7" y2="6" />
    <line x1="7" y1="6" x2="11" y2="8" />
    <line x1="11" y1="8" x2="13" y2="12" />
    <line x1="10" y1="2" x2="8" y2="5" />
    <line x1="5" y1="4" x2="4" y2="9" />
    <line x1="4" y1="9" x2="7" y2="13" />
    <line x1="2" y1="11" x2="6" y2="10" />
    <line x1="1" y1="7" x2="5" y2="6" />
    <line x1="9" y1="1" x2="9" y2="4" />
    <line x1="9" y1="4" x2="6" y2="7" />
  </g>

  <g transform="translate(48,0)" stroke="#0f172a" stroke-width="1" fill="none" stroke-linecap="square">
    <line x1="3" y1="2" x2="7" y2="6" />
    <line x1="7" y1="6" x2="11" y2="8" />
    <line x1="11" y1="8" x2="13" y2="12" />
    <line x1="10" y1="2" x2="8" y2="5" />
    <line x1="5" y1="4" x2="4" y2="9" />
    <line x1="4" y1="9" x2="7" y2="13" />
    <line x1="2" y1="11" x2="6" y2="10" />
    <line x1="1" y1="7" x2="5" y2="6" />
    <line x1="9" y1="1" x2="9" y2="4" />
    <line x1="9" y1="4" x2="6" y2="7" />
    <line x1="12" y1="3" x2="10" y2="7" />
    <line x1="10" y1="7" x2="12" y2="11" />
    <line x1="6" y1="12" x2="10" y2="11" />
  </g>
</svg>
