<svg xmlns="http://www.w3.org/2000/svg" width="64" height="16" viewBox="0 0 64 16" shape-rendering="crispEdges">
  <rect width="64" height="16" fill="#00000000" />

  <g transform="translate(0,0)">
    <rect x="7" y="11" width="2" height="3" fill="#7c4a1d" />
    <rect x="7" y="10" width="2" height="1" fill="#6b3f1a" />
    <rect x="7" y="9" width="2" height="1" fill="#65a30d" />
    <rect x="6" y="8" width="4" height="1" fill="#84cc16" />
  </g>

  <g transform="translate(16,0)">
    <rect x="7" y="10" width="2" height="4" fill="#7c4a1d" />
    <rect x="6" y="8" width="4" height="2" fill="#65a30d" />
    <rect x="5" y="7" width="6" height="1" fill="#84cc16" />
  </g>

  <g transform="translate(32,0)">
    <rect x="7" y="9" width="2" height="5" fill="#7c4a1d" />
    <rect x="5" y="6" width="6" height="3" fill="#65a30d" />
    <rect x="4" y="5" width="8" height="1" fill="#84cc16" />
    <rect x="6" y="7" width="1" height="1" fill="#bbf7d0" />
  </g>

  <g transform="translate(48,0)">
    <rect x="7" y="8" width="2" height="6" fill="#7c4a1d" />
    <rect x="4" y="4" width="8" height="4" fill="#65a30d" />
    <rect x="3" y="3" width="10" height="1" fill="#84cc16" />
    <rect x="5" y="5" width="1" height="1" fill="#bbf7d0" />
    <rect x="10" y="6" width="1" height="1" fill="#bbf7d0" />
  </g>
</svg>
